<?xml version="1.0" standalone="no"?>
 <!DOCTYPE svg PUBLIC "-//W3C//DTD SVG 1.1//EN" 
 "http://www.w3.org/Graphics/SVG/1.1/DTD/svg11.dtd"> 
<svg
  xmlns:svg="http://www.w3.org/2000/svg"
  xmlns="http://www.w3.org/2000/svg"
  xmlns:xlink="http://www.w3.org/1999/xlink"
  version="1.1"
  width="29.700220cm" height="21.000720cm" viewBox="0 0 297002200 210007200">
<title>SVG Picture created as Fader-F_Fab.svg date 2022/06/05 19:46:48 </title>
  <desc>Picture generated by PCBNEW </desc>
<g style="fill:#000000; fill-opacity:1.000000;stroke:#000000; stroke-opacity:1.000000;
stroke-linecap:round; stroke-linejoin:round;"
 transform="translate(0 0) scale(1 1)">
</g>
<g style="fill:#000000; fill-opacity:0.0; 
stroke:#000000; stroke-width:0.000000; stroke-opacity:1; 
stroke-linecap:round; stroke-linejoin:round;">
</g>
<g style="fill:#000000; fill-opacity:0.0; 
stroke:#000000; stroke-width:21200.000000; stroke-opacity:1; 
stroke-linecap:round; stroke-linejoin:round;">
</g>
<g style="fill:#000000; fill-opacity:0.0; 
stroke:#000000; stroke-width:150000.000000; stroke-opacity:1; 
stroke-linecap:round; stroke-linejoin:round;">
<rect x="177002200.000000" y="166007200.000000" width="108000000.000000" height="32000000.000000" rx="0.000000" />
</g>
<g style="fill:#000000; fill-opacity:0.0; 
stroke:#000000; stroke-width:21200.000000; stroke-opacity:1; 
stroke-linecap:round; stroke-linejoin:round;">
</g>
<g style="fill:#000000; fill-opacity:0.0; 
stroke:#000000; stroke-width:150000.000000; stroke-opacity:1; 
stroke-linecap:round; stroke-linejoin:round;">
<rect x="10000000.000000" y="10000000.000000" width="277002200.000000" height="190007200.000000" rx="0.000000" />
</g>
<g style="fill:#000000; fill-opacity:0.0; 
stroke:#000000; stroke-width:21200.000000; stroke-opacity:1; 
stroke-linecap:round; stroke-linejoin:round;">
</g>
<g style="fill:#000000; fill-opacity:0.0; 
stroke:#000000; stroke-width:150000.000000; stroke-opacity:1; 
stroke-linecap:round; stroke-linejoin:round;">
<rect x="12000000.000000" y="12000000.000000" width="273002200.000000" height="186007200.000000" rx="0.000000" />
</g>
<g style="fill:#000000; fill-opacity:0.0; 
stroke:#000000; stroke-width:21200.000000; stroke-opacity:1; 
stroke-linecap:round; stroke-linejoin:round;">
</g>
<g style="fill:#000000; fill-opacity:0.0; 
stroke:#000000; stroke-width:150000.000000; stroke-opacity:1; 
stroke-linecap:round; stroke-linejoin:round;">
<path d="M60000000 12000000
L60000000 10000000
" />
</g>
<g style="fill:#000000; fill-opacity:0.0; 
stroke:#000000; stroke-width:21200.000000; stroke-opacity:1; 
stroke-linecap:round; stroke-linejoin:round;">
</g>
<g style="fill:#000000; fill-opacity:0.0; 
stroke:#000000; stroke-width:150000.000000; stroke-opacity:1; 
stroke-linecap:round; stroke-linejoin:round;">
<path d="M110000000 12000000
L110000000 10000000
" />
</g>
<g style="fill:#000000; fill-opacity:0.0; 
stroke:#000000; stroke-width:21200.000000; stroke-opacity:1; 
stroke-linecap:round; stroke-linejoin:round;">
</g>
<g style="fill:#000000; fill-opacity:0.0; 
stroke:#000000; stroke-width:150000.000000; stroke-opacity:1; 
stroke-linecap:round; stroke-linejoin:round;">
<path d="M160000000 12000000
L160000000 10000000
" />
</g>
<g style="fill:#000000; fill-opacity:0.0; 
stroke:#000000; stroke-width:21200.000000; stroke-opacity:1; 
stroke-linecap:round; stroke-linejoin:round;">
</g>
<g style="fill:#000000; fill-opacity:0.0; 
stroke:#000000; stroke-width:150000.000000; stroke-opacity:1; 
stroke-linecap:round; stroke-linejoin:round;">
<path d="M210000000 12000000
L210000000 10000000
" />
</g>
<g style="fill:#000000; fill-opacity:0.0; 
stroke:#000000; stroke-width:21200.000000; stroke-opacity:1; 
stroke-linecap:round; stroke-linejoin:round;">
</g>
<g style="fill:#000000; fill-opacity:0.0; 
stroke:#000000; stroke-width:150000.000000; stroke-opacity:1; 
stroke-linecap:round; stroke-linejoin:round;">
<path d="M260000000 12000000
L260000000 10000000
" />
</g>
<g style="fill:#000000; fill-opacity:0.0; 
stroke:#000000; stroke-width:21200.000000; stroke-opacity:1; 
stroke-linecap:round; stroke-linejoin:round;">
</g>
<g style="fill:#000000; fill-opacity:0.0; 
stroke:#000000; stroke-width:150000.000000; stroke-opacity:1; 
stroke-linecap:round; stroke-linejoin:round;">
<text x="35000000.000000" y="11650000.000000"
textLength="1388095.000000" font-size="1733333.000000" lengthAdjust="spacingAndGlyphs"
text-anchor="start" opacity="0">1</text>
<g class="stroked-text"><desc>1</desc>
<path d="M36065476 11588095
L35322619 11588095
" />
<path d="M35694047 11588095
L35694047 10288095
L35570238 10473809
L35446428 10597619
L35322619 10659523
" />
</g></g>
<g style="fill:#000000; fill-opacity:0.0; 
stroke:#000000; stroke-width:21200.000000; stroke-opacity:1; 
stroke-linecap:round; stroke-linejoin:round;">
</g>
<g style="fill:#000000; fill-opacity:0.0; 
stroke:#000000; stroke-width:150000.000000; stroke-opacity:1; 
stroke-linecap:round; stroke-linejoin:round;">
<text x="85000000.000000" y="11650000.000000"
textLength="1388095.000000" font-size="1733333.000000" lengthAdjust="spacingAndGlyphs"
text-anchor="start" opacity="0">2</text>
<g class="stroked-text"><desc>2</desc>
<path d="M85322619 10411904
L85384523 10350000
L85508333 10288095
L85817857 10288095
L85941666 10350000
L86003571 10411904
L86065476 10535714
L86065476 10659523
L86003571 10845238
L85260714 11588095
L86065476 11588095
" />
</g></g>
<g style="fill:#000000; fill-opacity:0.0; 
stroke:#000000; stroke-width:21200.000000; stroke-opacity:1; 
stroke-linecap:round; stroke-linejoin:round;">
</g>
<g style="fill:#000000; fill-opacity:0.0; 
stroke:#000000; stroke-width:150000.000000; stroke-opacity:1; 
stroke-linecap:round; stroke-linejoin:round;">
<text x="135000000.000000" y="11650000.000000"
textLength="1388095.000000" font-size="1733333.000000" lengthAdjust="spacingAndGlyphs"
text-anchor="start" opacity="0">3</text>
<g class="stroked-text"><desc>3</desc>
<path d="M135260714 10288095
L136065476 10288095
L135632142 10783333
L135817857 10783333
L135941666 10845238
L136003571 10907142
L136065476 11030952
L136065476 11340476
L136003571 11464285
L135941666 11526190
L135817857 11588095
L135446428 11588095
L135322619 11526190
L135260714 11464285
" />
</g></g>
<g style="fill:#000000; fill-opacity:0.0; 
stroke:#000000; stroke-width:21200.000000; stroke-opacity:1; 
stroke-linecap:round; stroke-linejoin:round;">
</g>
<g style="fill:#000000; fill-opacity:0.0; 
stroke:#000000; stroke-width:150000.000000; stroke-opacity:1; 
stroke-linecap:round; stroke-linejoin:round;">
<text x="185000000.000000" y="11650000.000000"
textLength="1388095.000000" font-size="1733333.000000" lengthAdjust="spacingAndGlyphs"
text-anchor="start" opacity="0">4</text>
<g class="stroked-text"><desc>4</desc>
<path d="M185941666 10721428
L185941666 11588095
" />
<path d="M185632142 10226190
L185322619 11154761
L186127380 11154761
" />
</g></g>
<g style="fill:#000000; fill-opacity:0.0; 
stroke:#000000; stroke-width:21200.000000; stroke-opacity:1; 
stroke-linecap:round; stroke-linejoin:round;">
</g>
<g style="fill:#000000; fill-opacity:0.0; 
stroke:#000000; stroke-width:150000.000000; stroke-opacity:1; 
stroke-linecap:round; stroke-linejoin:round;">
<text x="235000000.000000" y="11650000.000000"
textLength="1388095.000000" font-size="1733333.000000" lengthAdjust="spacingAndGlyphs"
text-anchor="start" opacity="0">5</text>
<g class="stroked-text"><desc>5</desc>
<path d="M236003571 10288095
L235384523 10288095
L235322619 10907142
L235384523 10845238
L235508333 10783333
L235817857 10783333
L235941666 10845238
L236003571 10907142
L236065476 11030952
L236065476 11340476
L236003571 11464285
L235941666 11526190
L235817857 11588095
L235508333 11588095
L235384523 11526190
L235322619 11464285
" />
</g></g>
<g style="fill:#000000; fill-opacity:0.0; 
stroke:#000000; stroke-width:21200.000000; stroke-opacity:1; 
stroke-linecap:round; stroke-linejoin:round;">
</g>
<g style="fill:#000000; fill-opacity:0.0; 
stroke:#000000; stroke-width:150000.000000; stroke-opacity:1; 
stroke-linecap:round; stroke-linejoin:round;">
<text x="285000000.000000" y="11650000.000000"
textLength="1388095.000000" font-size="1733333.000000" lengthAdjust="spacingAndGlyphs"
text-anchor="start" opacity="0">6</text>
<g class="stroked-text"><desc>6</desc>
<path d="M285941666 10288095
L285694047 10288095
L285570238 10350000
L285508333 10411904
L285384523 10597619
L285322619 10845238
L285322619 11340476
L285384523 11464285
L285446428 11526190
L285570238 11588095
L285817857 11588095
L285941666 11526190
L286003571 11464285
L286065476 11340476
L286065476 11030952
L286003571 10907142
L285941666 10845238
L285817857 10783333
L285570238 10783333
L285446428 10845238
L285384523 10907142
L285322619 11030952
" />
</g></g>
<g style="fill:#000000; fill-opacity:0.0; 
stroke:#000000; stroke-width:21200.000000; stroke-opacity:1; 
stroke-linecap:round; stroke-linejoin:round;">
</g>
<g style="fill:#000000; fill-opacity:0.0; 
stroke:#000000; stroke-width:150000.000000; stroke-opacity:1; 
stroke-linecap:round; stroke-linejoin:round;">
<path d="M60000000 198007200
L60000000 200007200
" />
</g>
<g style="fill:#000000; fill-opacity:0.0; 
stroke:#000000; stroke-width:21200.000000; stroke-opacity:1; 
stroke-linecap:round; stroke-linejoin:round;">
</g>
<g style="fill:#000000; fill-opacity:0.0; 
stroke:#000000; stroke-width:150000.000000; stroke-opacity:1; 
stroke-linecap:round; stroke-linejoin:round;">
<path d="M110000000 198007200
L110000000 200007200
" />
</g>
<g style="fill:#000000; fill-opacity:0.0; 
stroke:#000000; stroke-width:21200.000000; stroke-opacity:1; 
stroke-linecap:round; stroke-linejoin:round;">
</g>
<g style="fill:#000000; fill-opacity:0.0; 
stroke:#000000; stroke-width:150000.000000; stroke-opacity:1; 
stroke-linecap:round; stroke-linejoin:round;">
<path d="M160000000 198007200
L160000000 200007200
" />
</g>
<g style="fill:#000000; fill-opacity:0.0; 
stroke:#000000; stroke-width:21200.000000; stroke-opacity:1; 
stroke-linecap:round; stroke-linejoin:round;">
</g>
<g style="fill:#000000; fill-opacity:0.0; 
stroke:#000000; stroke-width:150000.000000; stroke-opacity:1; 
stroke-linecap:round; stroke-linejoin:round;">
<path d="M210000000 198007200
L210000000 200007200
" />
</g>
<g style="fill:#000000; fill-opacity:0.0; 
stroke:#000000; stroke-width:21200.000000; stroke-opacity:1; 
stroke-linecap:round; stroke-linejoin:round;">
</g>
<g style="fill:#000000; fill-opacity:0.0; 
stroke:#000000; stroke-width:150000.000000; stroke-opacity:1; 
stroke-linecap:round; stroke-linejoin:round;">
<path d="M260000000 198007200
L260000000 200007200
" />
</g>
<g style="fill:#000000; fill-opacity:0.0; 
stroke:#000000; stroke-width:21200.000000; stroke-opacity:1; 
stroke-linecap:round; stroke-linejoin:round;">
</g>
<g style="fill:#000000; fill-opacity:0.0; 
stroke:#000000; stroke-width:150000.000000; stroke-opacity:1; 
stroke-linecap:round; stroke-linejoin:round;">
<text x="35000000.000000" y="199657200.000000"
textLength="1388095.000000" font-size="1733333.000000" lengthAdjust="spacingAndGlyphs"
text-anchor="start" opacity="0">1</text>
<g class="stroked-text"><desc>1</desc>
<path d="M36065476 199595295
L35322619 199595295
" />
<path d="M35694047 199595295
L35694047 198295295
L35570238 198481009
L35446428 198604819
L35322619 198666723
" />
</g></g>
<g style="fill:#000000; fill-opacity:0.0; 
stroke:#000000; stroke-width:21200.000000; stroke-opacity:1; 
stroke-linecap:round; stroke-linejoin:round;">
</g>
<g style="fill:#000000; fill-opacity:0.0; 
stroke:#000000; stroke-width:150000.000000; stroke-opacity:1; 
stroke-linecap:round; stroke-linejoin:round;">
<text x="85000000.000000" y="199657200.000000"
textLength="1388095.000000" font-size="1733333.000000" lengthAdjust="spacingAndGlyphs"
text-anchor="start" opacity="0">2</text>
<g class="stroked-text"><desc>2</desc>
<path d="M85322619 198419104
L85384523 198357200
L85508333 198295295
L85817857 198295295
L85941666 198357200
L86003571 198419104
L86065476 198542914
L86065476 198666723
L86003571 198852438
L85260714 199595295
L86065476 199595295
" />
</g></g>
<g style="fill:#000000; fill-opacity:0.0; 
stroke:#000000; stroke-width:21200.000000; stroke-opacity:1; 
stroke-linecap:round; stroke-linejoin:round;">
</g>
<g style="fill:#000000; fill-opacity:0.0; 
stroke:#000000; stroke-width:150000.000000; stroke-opacity:1; 
stroke-linecap:round; stroke-linejoin:round;">
<text x="135000000.000000" y="199657200.000000"
textLength="1388095.000000" font-size="1733333.000000" lengthAdjust="spacingAndGlyphs"
text-anchor="start" opacity="0">3</text>
<g class="stroked-text"><desc>3</desc>
<path d="M135260714 198295295
L136065476 198295295
L135632142 198790533
L135817857 198790533
L135941666 198852438
L136003571 198914342
L136065476 199038152
L136065476 199347676
L136003571 199471485
L135941666 199533390
L135817857 199595295
L135446428 199595295
L135322619 199533390
L135260714 199471485
" />
</g></g>
<g style="fill:#000000; fill-opacity:0.0; 
stroke:#000000; stroke-width:21200.000000; stroke-opacity:1; 
stroke-linecap:round; stroke-linejoin:round;">
</g>
<g style="fill:#000000; fill-opacity:0.0; 
stroke:#000000; stroke-width:150000.000000; stroke-opacity:1; 
stroke-linecap:round; stroke-linejoin:round;">
<text x="185000000.000000" y="199657200.000000"
textLength="1388095.000000" font-size="1733333.000000" lengthAdjust="spacingAndGlyphs"
text-anchor="start" opacity="0">4</text>
<g class="stroked-text"><desc>4</desc>
<path d="M185941666 198728628
L185941666 199595295
" />
<path d="M185632142 198233390
L185322619 199161961
L186127380 199161961
" />
</g></g>
<g style="fill:#000000; fill-opacity:0.0; 
stroke:#000000; stroke-width:21200.000000; stroke-opacity:1; 
stroke-linecap:round; stroke-linejoin:round;">
</g>
<g style="fill:#000000; fill-opacity:0.0; 
stroke:#000000; stroke-width:150000.000000; stroke-opacity:1; 
stroke-linecap:round; stroke-linejoin:round;">
<text x="235000000.000000" y="199657200.000000"
textLength="1388095.000000" font-size="1733333.000000" lengthAdjust="spacingAndGlyphs"
text-anchor="start" opacity="0">5</text>
<g class="stroked-text"><desc>5</desc>
<path d="M236003571 198295295
L235384523 198295295
L235322619 198914342
L235384523 198852438
L235508333 198790533
L235817857 198790533
L235941666 198852438
L236003571 198914342
L236065476 199038152
L236065476 199347676
L236003571 199471485
L235941666 199533390
L235817857 199595295
L235508333 199595295
L235384523 199533390
L235322619 199471485
" />
</g></g>
<g style="fill:#000000; fill-opacity:0.0; 
stroke:#000000; stroke-width:21200.000000; stroke-opacity:1; 
stroke-linecap:round; stroke-linejoin:round;">
</g>
<g style="fill:#000000; fill-opacity:0.0; 
stroke:#000000; stroke-width:150000.000000; stroke-opacity:1; 
stroke-linecap:round; stroke-linejoin:round;">
<text x="285000000.000000" y="199657200.000000"
textLength="1388095.000000" font-size="1733333.000000" lengthAdjust="spacingAndGlyphs"
text-anchor="start" opacity="0">6</text>
<g class="stroked-text"><desc>6</desc>
<path d="M285941666 198295295
L285694047 198295295
L285570238 198357200
L285508333 198419104
L285384523 198604819
L285322619 198852438
L285322619 199347676
L285384523 199471485
L285446428 199533390
L285570238 199595295
L285817857 199595295
L285941666 199533390
L286003571 199471485
L286065476 199347676
L286065476 199038152
L286003571 198914342
L285941666 198852438
L285817857 198790533
L285570238 198790533
L285446428 198852438
L285384523 198914342
L285322619 199038152
" />
</g></g>
<g style="fill:#000000; fill-opacity:0.0; 
stroke:#000000; stroke-width:21200.000000; stroke-opacity:1; 
stroke-linecap:round; stroke-linejoin:round;">
</g>
<g style="fill:#000000; fill-opacity:0.0; 
stroke:#000000; stroke-width:150000.000000; stroke-opacity:1; 
stroke-linecap:round; stroke-linejoin:round;">
<path d="M10000000 60000000
L12000000 60000000
" />
</g>
<g style="fill:#000000; fill-opacity:0.0; 
stroke:#000000; stroke-width:21200.000000; stroke-opacity:1; 
stroke-linecap:round; stroke-linejoin:round;">
</g>
<g style="fill:#000000; fill-opacity:0.0; 
stroke:#000000; stroke-width:150000.000000; stroke-opacity:1; 
stroke-linecap:round; stroke-linejoin:round;">
<path d="M10000000 110000000
L12000000 110000000
" />
</g>
<g style="fill:#000000; fill-opacity:0.0; 
stroke:#000000; stroke-width:21200.000000; stroke-opacity:1; 
stroke-linecap:round; stroke-linejoin:round;">
</g>
<g style="fill:#000000; fill-opacity:0.0; 
stroke:#000000; stroke-width:150000.000000; stroke-opacity:1; 
stroke-linecap:round; stroke-linejoin:round;">
<path d="M10000000 160000000
L12000000 160000000
" />
</g>
<g style="fill:#000000; fill-opacity:0.0; 
stroke:#000000; stroke-width:21200.000000; stroke-opacity:1; 
stroke-linecap:round; stroke-linejoin:round;">
</g>
<g style="fill:#000000; fill-opacity:0.0; 
stroke:#000000; stroke-width:150000.000000; stroke-opacity:1; 
stroke-linecap:round; stroke-linejoin:round;">
<text x="11000000.000000" y="35650000.000000"
textLength="1264286.000000" font-size="1733333.000000" lengthAdjust="spacingAndGlyphs"
text-anchor="middle" opacity="0">A</text>
<g class="stroked-text"><desc>A</desc>
<path d="M10690476 35216666
L11309523 35216666
" />
<path d="M10566666 35588095
L11000000 34288095
L11433333 35588095
" />
</g></g>
<g style="fill:#000000; fill-opacity:0.0; 
stroke:#000000; stroke-width:21200.000000; stroke-opacity:1; 
stroke-linecap:round; stroke-linejoin:round;">
</g>
<g style="fill:#000000; fill-opacity:0.0; 
stroke:#000000; stroke-width:150000.000000; stroke-opacity:1; 
stroke-linecap:round; stroke-linejoin:round;">
<text x="11000000.000000" y="85650000.000000"
textLength="1450000.000000" font-size="1733333.000000" lengthAdjust="spacingAndGlyphs"
text-anchor="middle" opacity="0">B</text>
<g class="stroked-text"><desc>B</desc>
<path d="M11092857 84907142
L11278571 84969047
L11340476 85030952
L11402380 85154761
L11402380 85340476
L11340476 85464285
L11278571 85526190
L11154761 85588095
L10659523 85588095
L10659523 84288095
L11092857 84288095
L11216666 84350000
L11278571 84411904
L11340476 84535714
L11340476 84659523
L11278571 84783333
L11216666 84845238
L11092857 84907142
L10659523 84907142
" />
</g></g>
<g style="fill:#000000; fill-opacity:0.0; 
stroke:#000000; stroke-width:21200.000000; stroke-opacity:1; 
stroke-linecap:round; stroke-linejoin:round;">
</g>
<g style="fill:#000000; fill-opacity:0.0; 
stroke:#000000; stroke-width:150000.000000; stroke-opacity:1; 
stroke-linecap:round; stroke-linejoin:round;">
<text x="11000000.000000" y="135650000.000000"
textLength="1450000.000000" font-size="1733333.000000" lengthAdjust="spacingAndGlyphs"
text-anchor="middle" opacity="0">C</text>
<g class="stroked-text"><desc>C</desc>
<path d="M11402380 135464285
L11340476 135526190
L11154761 135588095
L11030952 135588095
L10845238 135526190
L10721428 135402380
L10659523 135278571
L10597619 135030952
L10597619 134845238
L10659523 134597619
L10721428 134473809
L10845238 134350000
L11030952 134288095
L11154761 134288095
L11340476 134350000
L11402380 134411904
" />
</g></g>
<g style="fill:#000000; fill-opacity:0.0; 
stroke:#000000; stroke-width:21200.000000; stroke-opacity:1; 
stroke-linecap:round; stroke-linejoin:round;">
</g>
<g style="fill:#000000; fill-opacity:0.0; 
stroke:#000000; stroke-width:150000.000000; stroke-opacity:1; 
stroke-linecap:round; stroke-linejoin:round;">
<text x="11000000.000000" y="185650000.000000"
textLength="1450000.000000" font-size="1733333.000000" lengthAdjust="spacingAndGlyphs"
text-anchor="middle" opacity="0">D</text>
<g class="stroked-text"><desc>D</desc>
<path d="M10659523 185588095
L10659523 184288095
L10969047 184288095
L11154761 184350000
L11278571 184473809
L11340476 184597619
L11402380 184845238
L11402380 185030952
L11340476 185278571
L11278571 185402380
L11154761 185526190
L10969047 185588095
L10659523 185588095
" />
</g></g>
<g style="fill:#000000; fill-opacity:0.0; 
stroke:#000000; stroke-width:21200.000000; stroke-opacity:1; 
stroke-linecap:round; stroke-linejoin:round;">
</g>
<g style="fill:#000000; fill-opacity:0.0; 
stroke:#000000; stroke-width:150000.000000; stroke-opacity:1; 
stroke-linecap:round; stroke-linejoin:round;">
<path d="M287002200 60000000
L285002200 60000000
" />
</g>
<g style="fill:#000000; fill-opacity:0.0; 
stroke:#000000; stroke-width:21200.000000; stroke-opacity:1; 
stroke-linecap:round; stroke-linejoin:round;">
</g>
<g style="fill:#000000; fill-opacity:0.0; 
stroke:#000000; stroke-width:150000.000000; stroke-opacity:1; 
stroke-linecap:round; stroke-linejoin:round;">
<path d="M287002200 110000000
L285002200 110000000
" />
</g>
<g style="fill:#000000; fill-opacity:0.0; 
stroke:#000000; stroke-width:21200.000000; stroke-opacity:1; 
stroke-linecap:round; stroke-linejoin:round;">
</g>
<g style="fill:#000000; fill-opacity:0.0; 
stroke:#000000; stroke-width:150000.000000; stroke-opacity:1; 
stroke-linecap:round; stroke-linejoin:round;">
<path d="M287002200 160000000
L285002200 160000000
" />
</g>
<g style="fill:#000000; fill-opacity:0.0; 
stroke:#000000; stroke-width:21200.000000; stroke-opacity:1; 
stroke-linecap:round; stroke-linejoin:round;">
</g>
<g style="fill:#000000; fill-opacity:0.0; 
stroke:#000000; stroke-width:150000.000000; stroke-opacity:1; 
stroke-linecap:round; stroke-linejoin:round;">
<text x="286002200.000000" y="35650000.000000"
textLength="1264286.000000" font-size="1733333.000000" lengthAdjust="spacingAndGlyphs"
text-anchor="middle" opacity="0">A</text>
<g class="stroked-text"><desc>A</desc>
<path d="M285692676 35216666
L286311723 35216666
" />
<path d="M285568866 35588095
L286002200 34288095
L286435533 35588095
" />
</g></g>
<g style="fill:#000000; fill-opacity:0.0; 
stroke:#000000; stroke-width:21200.000000; stroke-opacity:1; 
stroke-linecap:round; stroke-linejoin:round;">
</g>
<g style="fill:#000000; fill-opacity:0.0; 
stroke:#000000; stroke-width:150000.000000; stroke-opacity:1; 
stroke-linecap:round; stroke-linejoin:round;">
<text x="286002200.000000" y="85650000.000000"
textLength="1450000.000000" font-size="1733333.000000" lengthAdjust="spacingAndGlyphs"
text-anchor="middle" opacity="0">B</text>
<g class="stroked-text"><desc>B</desc>
<path d="M286095057 84907142
L286280771 84969047
L286342676 85030952
L286404580 85154761
L286404580 85340476
L286342676 85464285
L286280771 85526190
L286156961 85588095
L285661723 85588095
L285661723 84288095
L286095057 84288095
L286218866 84350000
L286280771 84411904
L286342676 84535714
L286342676 84659523
L286280771 84783333
L286218866 84845238
L286095057 84907142
L285661723 84907142
" />
</g></g>
<g style="fill:#000000; fill-opacity:0.0; 
stroke:#000000; stroke-width:21200.000000; stroke-opacity:1; 
stroke-linecap:round; stroke-linejoin:round;">
</g>
<g style="fill:#000000; fill-opacity:0.0; 
stroke:#000000; stroke-width:150000.000000; stroke-opacity:1; 
stroke-linecap:round; stroke-linejoin:round;">
<text x="286002200.000000" y="135650000.000000"
textLength="1450000.000000" font-size="1733333.000000" lengthAdjust="spacingAndGlyphs"
text-anchor="middle" opacity="0">C</text>
<g class="stroked-text"><desc>C</desc>
<path d="M286404580 135464285
L286342676 135526190
L286156961 135588095
L286033152 135588095
L285847438 135526190
L285723628 135402380
L285661723 135278571
L285599819 135030952
L285599819 134845238
L285661723 134597619
L285723628 134473809
L285847438 134350000
L286033152 134288095
L286156961 134288095
L286342676 134350000
L286404580 134411904
" />
</g></g>
<g style="fill:#000000; fill-opacity:0.0; 
stroke:#000000; stroke-width:21200.000000; stroke-opacity:1; 
stroke-linecap:round; stroke-linejoin:round;">
</g>
<g style="fill:#000000; fill-opacity:0.0; 
stroke:#000000; stroke-width:150000.000000; stroke-opacity:1; 
stroke-linecap:round; stroke-linejoin:round;">
<text x="286002200.000000" y="185650000.000000"
textLength="1450000.000000" font-size="1733333.000000" lengthAdjust="spacingAndGlyphs"
text-anchor="middle" opacity="0">D</text>
<g class="stroked-text"><desc>D</desc>
<path d="M285661723 185588095
L285661723 184288095
L285971247 184288095
L286156961 184350000
L286280771 184473809
L286342676 184597619
L286404580 184845238
L286404580 185030952
L286342676 185278571
L286280771 185402380
L286156961 185526190
L285971247 185588095
L285661723 185588095
" />
</g></g>
<g style="fill:#000000; fill-opacity:0.0; 
stroke:#000000; stroke-width:21200.000000; stroke-opacity:1; 
stroke-linecap:round; stroke-linejoin:round;">
</g>
<g style="fill:#000000; fill-opacity:0.0; 
stroke:#000000; stroke-width:150000.000000; stroke-opacity:1; 
stroke-linecap:round; stroke-linejoin:round;">
<text x="200002200.000000" y="193857200.000000"
textLength="7007143.000000" font-size="2000000.000000" lengthAdjust="spacingAndGlyphs"
text-anchor="start" opacity="0">Date: </text>
<g class="stroked-text"><desc>Date: </desc>
<path d="M200434342 193785771
L200434342 192285771
L200791485 192285771
L201005771 192357200
L201148628 192500057
L201220057 192642914
L201291485 192928628
L201291485 193142914
L201220057 193428628
L201148628 193571485
L201005771 193714342
L200791485 193785771
L200434342 193785771
" />
<path d="M202577200 193785771
L202577200 193000057
L202505771 192857200
L202362914 192785771
L202077200 192785771
L201934342 192857200
" />
<path d="M202577200 193714342
L202434342 193785771
L202077200 193785771
L201934342 193714342
L201862914 193571485
L201862914 193428628
L201934342 193285771
L202077200 193214342
L202434342 193214342
L202577200 193142914
" />
<path d="M203077200 192785771
L203648628 192785771
" />
<path d="M203291485 192285771
L203291485 193571485
L203362914 193714342
L203505771 193785771
L203648628 193785771
" />
<path d="M204720057 193714342
L204577200 193785771
L204291485 193785771
L204148628 193714342
L204077200 193571485
L204077200 193000057
L204148628 192857200
L204291485 192785771
L204577200 192785771
L204720057 192857200
L204791485 193000057
L204791485 193142914
L204077200 193285771
" />
<path d="M205434342 193642914
L205505771 193714342
L205434342 193785771
L205362914 193714342
L205434342 193642914
L205434342 193785771
" />
<path d="M205434342 192857200
L205505771 192928628
L205434342 193000057
L205362914 192928628
L205434342 192857200
L205434342 193000057
" />
</g></g>
<g style="fill:#000000; fill-opacity:0.0; 
stroke:#000000; stroke-width:21200.000000; stroke-opacity:1; 
stroke-linecap:round; stroke-linejoin:round;">
</g>
<g style="fill:#000000; fill-opacity:0.0; 
stroke:#000000; stroke-width:150000.000000; stroke-opacity:1; 
stroke-linecap:round; stroke-linejoin:round;">
<path d="M177002200 194507200
L285002200 194507200
" />
</g>
<g style="fill:#000000; fill-opacity:0.0; 
stroke:#000000; stroke-width:21200.000000; stroke-opacity:1; 
stroke-linecap:round; stroke-linejoin:round;">
</g>
<g style="fill:#000000; fill-opacity:0.0; 
stroke:#000000; stroke-width:150000.000000; stroke-opacity:1; 
stroke-linecap:round; stroke-linejoin:round;">
<text x="178002200.000000" y="196657200.000000"
textLength="31078571.000000" font-size="2000000.000000" lengthAdjust="spacingAndGlyphs"
text-anchor="start" opacity="0">KiCad E.D.A.  kicad (6.0.4)</text>
<g class="stroked-text"><desc>KiCad E.D.A.  kicad (6.0.4)</desc>
<path d="M178434342 196585771
L178434342 195085771
" />
<path d="M179291485 196585771
L178648628 195728628
" />
<path d="M179291485 195085771
L178434342 195942914
" />
<path d="M179934342 196585771
L179934342 195585771
" />
<path d="M179934342 195085771
L179862914 195157200
L179934342 195228628
L180005771 195157200
L179934342 195085771
L179934342 195228628
" />
<path d="M181505771 196442914
L181434342 196514342
L181220057 196585771
L181077200 196585771
L180862914 196514342
L180720057 196371485
L180648628 196228628
L180577200 195942914
L180577200 195728628
L180648628 195442914
L180720057 195300057
L180862914 195157200
L181077200 195085771
L181220057 195085771
L181434342 195157200
L181505771 195228628
" />
<path d="M182791485 196585771
L182791485 195800057
L182720057 195657200
L182577200 195585771
L182291485 195585771
L182148628 195657200
" />
<path d="M182791485 196514342
L182648628 196585771
L182291485 196585771
L182148628 196514342
L182077200 196371485
L182077200 196228628
L182148628 196085771
L182291485 196014342
L182648628 196014342
L182791485 195942914
" />
<path d="M184148628 196585771
L184148628 195085771
" />
<path d="M184148628 196514342
L184005771 196585771
L183720057 196585771
L183577200 196514342
L183505771 196442914
L183434342 196300057
L183434342 195871485
L183505771 195728628
L183577200 195657200
L183720057 195585771
L184005771 195585771
L184148628 195657200
" />
<path d="M186005771 195800057
L186505771 195800057
" />
<path d="M186720057 196585771
L186005771 196585771
L186005771 195085771
L186720057 195085771
" />
<path d="M187362914 196442914
L187434342 196514342
L187362914 196585771
L187291485 196514342
L187362914 196442914
L187362914 196585771
" />
<path d="M188077200 196585771
L188077200 195085771
L188434342 195085771
L188648628 195157200
L188791485 195300057
L188862914 195442914
L188934342 195728628
L188934342 195942914
L188862914 196228628
L188791485 196371485
L188648628 196514342
L188434342 196585771
L188077200 196585771
" />
<path d="M189577200 196442914
L189648628 196514342
L189577200 196585771
L189505771 196514342
L189577200 196442914
L189577200 196585771
" />
<path d="M190220057 196157200
L190934342 196157200
" />
<path d="M190077200 196585771
L190577200 195085771
L191077200 196585771
" />
<path d="M191577200 196442914
L191648628 196514342
L191577200 196585771
L191505771 196514342
L191577200 196442914
L191577200 196585771
" />
<path d="M194577200 196585771
L194577200 195085771
" />
<path d="M194720057 196014342
L195148628 196585771
" />
<path d="M195148628 195585771
L194577200 196157200
" />
<path d="M195791485 196585771
L195791485 195585771
" />
<path d="M195791485 195085771
L195720057 195157200
L195791485 195228628
L195862914 195157200
L195791485 195085771
L195791485 195228628
" />
<path d="M197148628 196514342
L197005771 196585771
L196720057 196585771
L196577200 196514342
L196505771 196442914
L196434342 196300057
L196434342 195871485
L196505771 195728628
L196577200 195657200
L196720057 195585771
L197005771 195585771
L197148628 195657200
" />
<path d="M198434342 196585771
L198434342 195800057
L198362914 195657200
L198220057 195585771
L197934342 195585771
L197791485 195657200
" />
<path d="M198434342 196514342
L198291485 196585771
L197934342 196585771
L197791485 196514342
L197720057 196371485
L197720057 196228628
L197791485 196085771
L197934342 196014342
L198291485 196014342
L198434342 195942914
" />
<path d="M199791485 196585771
L199791485 195085771
" />
<path d="M199791485 196514342
L199648628 196585771
L199362914 196585771
L199220057 196514342
L199148628 196442914
L199077200 196300057
L199077200 195871485
L199148628 195728628
L199220057 195657200
L199362914 195585771
L199648628 195585771
L199791485 195657200
" />
<path d="M202077200 197157200
L202005771 197085771
L201862914 196871485
L201791485 196728628
L201720057 196514342
L201648628 196157200
L201648628 195871485
L201720057 195514342
L201791485 195300057
L201862914 195157200
L202005771 194942914
L202077200 194871485
" />
<path d="M203291485 195085771
L203005771 195085771
L202862914 195157200
L202791485 195228628
L202648628 195442914
L202577200 195728628
L202577200 196300057
L202648628 196442914
L202720057 196514342
L202862914 196585771
L203148628 196585771
L203291485 196514342
L203362914 196442914
L203434342 196300057
L203434342 195942914
L203362914 195800057
L203291485 195728628
L203148628 195657200
L202862914 195657200
L202720057 195728628
L202648628 195800057
L202577200 195942914
" />
<path d="M204077200 196442914
L204148628 196514342
L204077200 196585771
L204005771 196514342
L204077200 196442914
L204077200 196585771
" />
<path d="M205077200 195085771
L205220057 195085771
L205362914 195157200
L205434342 195228628
L205505771 195371485
L205577200 195657200
L205577200 196014342
L205505771 196300057
L205434342 196442914
L205362914 196514342
L205220057 196585771
L205077200 196585771
L204934342 196514342
L204862914 196442914
L204791485 196300057
L204720057 196014342
L204720057 195657200
L204791485 195371485
L204862914 195228628
L204934342 195157200
L205077200 195085771
" />
<path d="M206220057 196442914
L206291485 196514342
L206220057 196585771
L206148628 196514342
L206220057 196442914
L206220057 196585771
" />
<path d="M207577200 195585771
L207577200 196585771
" />
<path d="M207220057 195014342
L206862914 196085771
L207791485 196085771
" />
<path d="M208220057 197157200
L208291485 197085771
L208434342 196871485
L208505771 196728628
L208577200 196514342
L208648628 196157200
L208648628 195871485
L208577200 195514342
L208505771 195300057
L208434342 195157200
L208291485 194942914
L208220057 194871485
" />
</g></g>
<g style="fill:#000000; fill-opacity:0.0; 
stroke:#000000; stroke-width:21200.000000; stroke-opacity:1; 
stroke-linecap:round; stroke-linejoin:round;">
</g>
<g style="fill:#000000; fill-opacity:0.0; 
stroke:#000000; stroke-width:150000.000000; stroke-opacity:1; 
stroke-linecap:round; stroke-linejoin:round;">
<path d="M177002200 191507200
L285002200 191507200
" />
</g>
<g style="fill:#000000; fill-opacity:0.0; 
stroke:#000000; stroke-width:21200.000000; stroke-opacity:1; 
stroke-linecap:round; stroke-linejoin:round;">
</g>
<g style="fill:#000000; fill-opacity:0.0; 
stroke:#000000; stroke-width:300000.000000; stroke-opacity:1; 
stroke-linecap:round; stroke-linejoin:round;">
<text x="263002200.000000" y="193857200.000000"
textLength="5935714.000000" font-size="2000000.000000" lengthAdjust="spacingAndGlyphs"
text-anchor="start" opacity="0">Rev: </text>
<g class="stroked-text"><desc>Rev: </desc>
<path d="M264411485 193785771
L263911485 193071485
" />
<path d="M263554342 193785771
L263554342 192285771
L264125771 192285771
L264268628 192357200
L264340057 192428628
L264411485 192571485
L264411485 192785771
L264340057 192928628
L264268628 193000057
L264125771 193071485
L263554342 193071485
" />
<path d="M265625771 193714342
L265482914 193785771
L265197200 193785771
L265054342 193714342
L264982914 193571485
L264982914 193000057
L265054342 192857200
L265197200 192785771
L265482914 192785771
L265625771 192857200
L265697200 193000057
L265697200 193142914
L264982914 193285771
" />
<path d="M266197200 192785771
L266554342 193785771
L266911485 192785771
" />
<path d="M267482914 193642914
L267554342 193714342
L267482914 193785771
L267411485 193714342
L267482914 193642914
L267482914 193785771
" />
<path d="M267482914 192857200
L267554342 192928628
L267482914 193000057
L267411485 192928628
L267482914 192857200
L267482914 193000057
" />
</g></g>
<g style="fill:#000000; fill-opacity:0.0; 
stroke:#000000; stroke-width:21200.000000; stroke-opacity:1; 
stroke-linecap:round; stroke-linejoin:round;">
</g>
<g style="fill:#000000; fill-opacity:0.0; 
stroke:#000000; stroke-width:150000.000000; stroke-opacity:1; 
stroke-linecap:round; stroke-linejoin:round;">
<text x="178002200.000000" y="193857200.000000"
textLength="9604286.000000" font-size="2000000.000000" lengthAdjust="spacingAndGlyphs"
text-anchor="start" opacity="0">Size: A4</text>
<g class="stroked-text"><desc>Size: A4</desc>
<path d="M178362914 193714342
L178577200 193785771
L178934342 193785771
L179077200 193714342
L179148628 193642914
L179220057 193500057
L179220057 193357200
L179148628 193214342
L179077200 193142914
L178934342 193071485
L178648628 193000057
L178505771 192928628
L178434342 192857200
L178362914 192714342
L178362914 192571485
L178434342 192428628
L178505771 192357200
L178648628 192285771
L179005771 192285771
L179220057 192357200
" />
<path d="M179862914 193785771
L179862914 192785771
" />
<path d="M179862914 192285771
L179791485 192357200
L179862914 192428628
L179934342 192357200
L179862914 192285771
L179862914 192428628
" />
<path d="M180434342 192785771
L181220057 192785771
L180434342 193785771
L181220057 193785771
" />
<path d="M182362914 193714342
L182220057 193785771
L181934342 193785771
L181791485 193714342
L181720057 193571485
L181720057 193000057
L181791485 192857200
L181934342 192785771
L182220057 192785771
L182362914 192857200
L182434342 193000057
L182434342 193142914
L181720057 193285771
" />
<path d="M183077200 193642914
L183148628 193714342
L183077200 193785771
L183005771 193714342
L183077200 193642914
L183077200 193785771
" />
<path d="M183077200 192857200
L183148628 192928628
L183077200 193000057
L183005771 192928628
L183077200 192857200
L183077200 193000057
" />
<path d="M184862914 193357200
L185577200 193357200
" />
<path d="M184720057 193785771
L185220057 192285771
L185720057 193785771
" />
<path d="M186862914 192785771
L186862914 193785771
" />
<path d="M186505771 192214342
L186148628 193285771
L187077200 193285771
" />
</g></g>
<g style="fill:#000000; fill-opacity:0.0; 
stroke:#000000; stroke-width:21200.000000; stroke-opacity:1; 
stroke-linecap:round; stroke-linejoin:round;">
</g>
<g style="fill:#000000; fill-opacity:0.0; 
stroke:#000000; stroke-width:150000.000000; stroke-opacity:1; 
stroke-linecap:round; stroke-linejoin:round;">
<text x="263002200.000000" y="196657200.000000"
textLength="8507143.000000" font-size="2000000.000000" lengthAdjust="spacingAndGlyphs"
text-anchor="start" opacity="0">Id: 1/1</text>
<g class="stroked-text"><desc>Id: 1/1</desc>
<path d="M263434342 196585771
L263434342 195085771
" />
<path d="M264791485 196585771
L264791485 195085771
" />
<path d="M264791485 196514342
L264648628 196585771
L264362914 196585771
L264220057 196514342
L264148628 196442914
L264077200 196300057
L264077200 195871485
L264148628 195728628
L264220057 195657200
L264362914 195585771
L264648628 195585771
L264791485 195657200
" />
<path d="M265505771 196442914
L265577200 196514342
L265505771 196585771
L265434342 196514342
L265505771 196442914
L265505771 196585771
" />
<path d="M265505771 195657200
L265577200 195728628
L265505771 195800057
L265434342 195728628
L265505771 195657200
L265505771 195800057
" />
<path d="M268148628 196585771
L267291485 196585771
" />
<path d="M267720057 196585771
L267720057 195085771
L267577200 195300057
L267434342 195442914
L267291485 195514342
" />
<path d="M269862914 195014342
L268577200 196942914
" />
<path d="M271148628 196585771
L270291485 196585771
" />
<path d="M270720057 196585771
L270720057 195085771
L270577200 195300057
L270434342 195442914
L270291485 195514342
" />
</g></g>
<g style="fill:#000000; fill-opacity:0.0; 
stroke:#000000; stroke-width:21200.000000; stroke-opacity:1; 
stroke-linecap:round; stroke-linejoin:round;">
</g>
<g style="fill:#000000; fill-opacity:0.0; 
stroke:#000000; stroke-width:150000.000000; stroke-opacity:1; 
stroke-linecap:round; stroke-linejoin:round;">
<path d="M177002200 187507200
L285002200 187507200
" />
</g>
<g style="fill:#000000; fill-opacity:0.0; 
stroke:#000000; stroke-width:21200.000000; stroke-opacity:1; 
stroke-linecap:round; stroke-linejoin:round;">
</g>
<g style="fill:#000000; fill-opacity:0.0; 
stroke:#000000; stroke-width:400000.000000; stroke-opacity:1; 
stroke-linecap:round; stroke-linejoin:round;">
<text x="178002200.000000" y="190307200.000000"
textLength="9409643.000000" font-size="2666666.000000" lengthAdjust="spacingAndGlyphs"
text-anchor="start" opacity="0">Title: </text>
<g class="stroked-text"><desc>Title: </desc>
<path d="M178714580 188211961
L179857438 188211961
" />
<path d="M179036009 190211961
L179286009 188211961
" />
<path d="M180274104 190211961
L180440771 188878628
" />
<path d="M180524104 188211961
L180416961 188307200
L180500295 188402438
L180607438 188307200
L180524104 188211961
L180500295 188402438
" />
<path d="M181107438 188878628
L181869342 188878628
" />
<path d="M181476485 188211961
L181262200 189926247
L181333628 190116723
L181512200 190211961
L181702676 190211961
" />
<path d="M182655057 190211961
L182476485 190116723
L182405057 189926247
L182619342 188211961
" />
<path d="M184190771 190116723
L183988390 190211961
L183607438 190211961
L183428866 190116723
L183357438 189926247
L183452676 189164342
L183571723 188973866
L183774104 188878628
L184155057 188878628
L184333628 188973866
L184405057 189164342
L184381247 189354819
L183405057 189545295
" />
<path d="M185155057 190021485
L185238390 190116723
L185131247 190211961
L185047914 190116723
L185155057 190021485
L185131247 190211961
" />
<path d="M185286009 188973866
L185369342 189069104
L185262200 189164342
L185178866 189069104
L185286009 188973866
L185262200 189164342
" />
</g></g>
<g style="fill:#000000; fill-opacity:0.0; 
stroke:#000000; stroke-width:21200.000000; stroke-opacity:1; 
stroke-linecap:round; stroke-linejoin:round;">
</g>
<g style="fill:#000000; fill-opacity:0.0; 
stroke:#000000; stroke-width:150000.000000; stroke-opacity:1; 
stroke-linecap:round; stroke-linejoin:round;">
<text x="178002200.000000" y="186457200.000000"
textLength="24448571.000000" font-size="2000000.000000" lengthAdjust="spacingAndGlyphs"
text-anchor="start" opacity="0">File: Fader.kicad_pcb</text>
<g class="stroked-text"><desc>File: Fader.kicad_pcb</desc>
<path d="M178934342 185600057
L178434342 185600057
" />
<path d="M178434342 186385771
L178434342 184885771
L179148628 184885771
" />
<path d="M179720057 186385771
L179720057 185385771
" />
<path d="M179720057 184885771
L179648628 184957200
L179720057 185028628
L179791485 184957200
L179720057 184885771
L179720057 185028628
" />
<path d="M180648628 186385771
L180505771 186314342
L180434342 186171485
L180434342 184885771
" />
<path d="M181791485 186314342
L181648628 186385771
L181362914 186385771
L181220057 186314342
L181148628 186171485
L181148628 185600057
L181220057 185457200
L181362914 185385771
L181648628 185385771
L181791485 185457200
L181862914 185600057
L181862914 185742914
L181148628 185885771
" />
<path d="M182505771 186242914
L182577200 186314342
L182505771 186385771
L182434342 186314342
L182505771 186242914
L182505771 186385771
" />
<path d="M182505771 185457200
L182577200 185528628
L182505771 185600057
L182434342 185528628
L182505771 185457200
L182505771 185600057
" />
<path d="M184862914 185600057
L184362914 185600057
" />
<path d="M184362914 186385771
L184362914 184885771
L185077200 184885771
" />
<path d="M186291485 186385771
L186291485 185600057
L186220057 185457200
L186077200 185385771
L185791485 185385771
L185648628 185457200
" />
<path d="M186291485 186314342
L186148628 186385771
L185791485 186385771
L185648628 186314342
L185577200 186171485
L185577200 186028628
L185648628 185885771
L185791485 185814342
L186148628 185814342
L186291485 185742914
" />
<path d="M187648628 186385771
L187648628 184885771
" />
<path d="M187648628 186314342
L187505771 186385771
L187220057 186385771
L187077200 186314342
L187005771 186242914
L186934342 186100057
L186934342 185671485
L187005771 185528628
L187077200 185457200
L187220057 185385771
L187505771 185385771
L187648628 185457200
" />
<path d="M188934342 186314342
L188791485 186385771
L188505771 186385771
L188362914 186314342
L188291485 186171485
L188291485 185600057
L188362914 185457200
L188505771 185385771
L188791485 185385771
L188934342 185457200
L189005771 185600057
L189005771 185742914
L188291485 185885771
" />
<path d="M189648628 186385771
L189648628 185385771
" />
<path d="M189648628 185671485
L189720057 185528628
L189791485 185457200
L189934342 185385771
L190077200 185385771
" />
<path d="M190577200 186242914
L190648628 186314342
L190577200 186385771
L190505771 186314342
L190577200 186242914
L190577200 186385771
" />
<path d="M191291485 186385771
L191291485 184885771
" />
<path d="M191434342 185814342
L191862914 186385771
" />
<path d="M191862914 185385771
L191291485 185957200
" />
<path d="M192505771 186385771
L192505771 185385771
" />
<path d="M192505771 184885771
L192434342 184957200
L192505771 185028628
L192577200 184957200
L192505771 184885771
L192505771 185028628
" />
<path d="M193862914 186314342
L193720057 186385771
L193434342 186385771
L193291485 186314342
L193220057 186242914
L193148628 186100057
L193148628 185671485
L193220057 185528628
L193291485 185457200
L193434342 185385771
L193720057 185385771
L193862914 185457200
" />
<path d="M195148628 186385771
L195148628 185600057
L195077200 185457200
L194934342 185385771
L194648628 185385771
L194505771 185457200
" />
<path d="M195148628 186314342
L195005771 186385771
L194648628 186385771
L194505771 186314342
L194434342 186171485
L194434342 186028628
L194505771 185885771
L194648628 185814342
L195005771 185814342
L195148628 185742914
" />
<path d="M196505771 186385771
L196505771 184885771
" />
<path d="M196505771 186314342
L196362914 186385771
L196077200 186385771
L195934342 186314342
L195862914 186242914
L195791485 186100057
L195791485 185671485
L195862914 185528628
L195934342 185457200
L196077200 185385771
L196362914 185385771
L196505771 185457200
" />
<path d="M196862914 186528628
L198005771 186528628
" />
<path d="M198362914 185385771
L198362914 186885771
" />
<path d="M198362914 185457200
L198505771 185385771
L198791485 185385771
L198934342 185457200
L199005771 185528628
L199077200 185671485
L199077200 186100057
L199005771 186242914
L198934342 186314342
L198791485 186385771
L198505771 186385771
L198362914 186314342
" />
<path d="M200362914 186314342
L200220057 186385771
L199934342 186385771
L199791485 186314342
L199720057 186242914
L199648628 186100057
L199648628 185671485
L199720057 185528628
L199791485 185457200
L199934342 185385771
L200220057 185385771
L200362914 185457200
" />
<path d="M201005771 186385771
L201005771 184885771
" />
<path d="M201005771 185457200
L201148628 185385771
L201434342 185385771
L201577200 185457200
L201648628 185528628
L201720057 185671485
L201720057 186100057
L201648628 186242914
L201577200 186314342
L201434342 186385771
L201148628 186385771
L201005771 186314342
" />
</g></g>
<g style="fill:#000000; fill-opacity:0.0; 
stroke:#000000; stroke-width:21200.000000; stroke-opacity:1; 
stroke-linecap:round; stroke-linejoin:round;">
</g>
<g style="fill:#000000; fill-opacity:0.0; 
stroke:#000000; stroke-width:150000.000000; stroke-opacity:1; 
stroke-linecap:round; stroke-linejoin:round;">
<path d="M177002200 181507200
L285002200 181507200
" />
</g>
<g style="fill:#000000; fill-opacity:0.0; 
stroke:#000000; stroke-width:21200.000000; stroke-opacity:1; 
stroke-linecap:round; stroke-linejoin:round;">
</g>
<g style="fill:#000000; fill-opacity:0.0; 
stroke:#000000; stroke-width:150000.000000; stroke-opacity:1; 
stroke-linecap:round; stroke-linejoin:round;">
<text x="178002200.000000" y="183757200.000000"
textLength="8221429.000000" font-size="2000000.000000" lengthAdjust="spacingAndGlyphs"
text-anchor="start" opacity="0">Sheet: </text>
<g class="stroked-text"><desc>Sheet: </desc>
<path d="M178362914 183614342
L178577200 183685771
L178934342 183685771
L179077200 183614342
L179148628 183542914
L179220057 183400057
L179220057 183257200
L179148628 183114342
L179077200 183042914
L178934342 182971485
L178648628 182900057
L178505771 182828628
L178434342 182757200
L178362914 182614342
L178362914 182471485
L178434342 182328628
L178505771 182257200
L178648628 182185771
L179005771 182185771
L179220057 182257200
" />
<path d="M179862914 183685771
L179862914 182185771
" />
<path d="M180505771 183685771
L180505771 182900057
L180434342 182757200
L180291485 182685771
L180077200 182685771
L179934342 182757200
L179862914 182828628
" />
<path d="M181791485 183614342
L181648628 183685771
L181362914 183685771
L181220057 183614342
L181148628 183471485
L181148628 182900057
L181220057 182757200
L181362914 182685771
L181648628 182685771
L181791485 182757200
L181862914 182900057
L181862914 183042914
L181148628 183185771
" />
<path d="M183077200 183614342
L182934342 183685771
L182648628 183685771
L182505771 183614342
L182434342 183471485
L182434342 182900057
L182505771 182757200
L182648628 182685771
L182934342 182685771
L183077200 182757200
L183148628 182900057
L183148628 183042914
L182434342 183185771
" />
<path d="M183577200 182685771
L184148628 182685771
" />
<path d="M183791485 182185771
L183791485 183471485
L183862914 183614342
L184005771 183685771
L184148628 183685771
" />
<path d="M184648628 183542914
L184720057 183614342
L184648628 183685771
L184577200 183614342
L184648628 183542914
L184648628 183685771
" />
<path d="M184648628 182757200
L184720057 182828628
L184648628 182900057
L184577200 182828628
L184648628 182757200
L184648628 182900057
" />
</g></g>
<g style="fill:#000000; fill-opacity:0.0; 
stroke:#000000; stroke-width:21200.000000; stroke-opacity:1; 
stroke-linecap:round; stroke-linejoin:round;">
</g>
<g style="fill:#000000; fill-opacity:0.0; 
stroke:#000000; stroke-width:300000.000000; stroke-opacity:1; 
stroke-linecap:round; stroke-linejoin:round;">
<text x="178002200.000000" y="180757200.000000"
textLength="150000.000000" font-size="2000000.000000" lengthAdjust="spacingAndGlyphs"
text-anchor="start" opacity="0"></text>
<g class="stroked-text"><desc></desc>
</g></g>
<g style="fill:#000000; fill-opacity:0.0; 
stroke:#000000; stroke-width:21200.000000; stroke-opacity:1; 
stroke-linecap:round; stroke-linejoin:round;">
</g>
<g style="fill:#000000; fill-opacity:0.0; 
stroke:#000000; stroke-width:150000.000000; stroke-opacity:1; 
stroke-linecap:round; stroke-linejoin:round;">
<text x="178002200.000000" y="177757200.000000"
textLength="300000.000000" font-size="2000000.000000" lengthAdjust="spacingAndGlyphs"
text-anchor="start" opacity="0"></text>
<g class="stroked-text"><desc></desc>
</g></g>
<g style="fill:#000000; fill-opacity:0.0; 
stroke:#000000; stroke-width:21200.000000; stroke-opacity:1; 
stroke-linecap:round; stroke-linejoin:round;">
</g>
<g style="fill:#000000; fill-opacity:0.0; 
stroke:#000000; stroke-width:150000.000000; stroke-opacity:1; 
stroke-linecap:round; stroke-linejoin:round;">
<text x="178002200.000000" y="174757200.000000"
textLength="150000.000000" font-size="2000000.000000" lengthAdjust="spacingAndGlyphs"
text-anchor="start" opacity="0"></text>
<g class="stroked-text"><desc></desc>
</g></g>
<g style="fill:#000000; fill-opacity:0.0; 
stroke:#000000; stroke-width:21200.000000; stroke-opacity:1; 
stroke-linecap:round; stroke-linejoin:round;">
</g>
<g style="fill:#000000; fill-opacity:0.0; 
stroke:#000000; stroke-width:150000.000000; stroke-opacity:1; 
stroke-linecap:round; stroke-linejoin:round;">
<text x="178002200.000000" y="171757200.000000"
textLength="150000.000000" font-size="2000000.000000" lengthAdjust="spacingAndGlyphs"
text-anchor="start" opacity="0"></text>
<g class="stroked-text"><desc></desc>
</g></g>
<g style="fill:#000000; fill-opacity:0.0; 
stroke:#000000; stroke-width:21200.000000; stroke-opacity:1; 
stroke-linecap:round; stroke-linejoin:round;">
</g>
<g style="fill:#000000; fill-opacity:0.0; 
stroke:#000000; stroke-width:150000.000000; stroke-opacity:1; 
stroke-linecap:round; stroke-linejoin:round;">
<text x="178002200.000000" y="168757200.000000"
textLength="150000.000000" font-size="2000000.000000" lengthAdjust="spacingAndGlyphs"
text-anchor="start" opacity="0"></text>
<g class="stroked-text"><desc></desc>
</g></g>
<g style="fill:#000000; fill-opacity:0.0; 
stroke:#000000; stroke-width:21200.000000; stroke-opacity:1; 
stroke-linecap:round; stroke-linejoin:round;">
</g>
<g style="fill:#000000; fill-opacity:0.0; 
stroke:#000000; stroke-width:150000.000000; stroke-opacity:1; 
stroke-linecap:round; stroke-linejoin:round;">
<path d="M197002200 191507200
L197002200 194507200
" />
</g>
<g style="fill:#000000; fill-opacity:0.0; 
stroke:#000000; stroke-width:21200.000000; stroke-opacity:1; 
stroke-linecap:round; stroke-linejoin:round;">
</g>
<g style="fill:#000000; fill-opacity:0.0; 
stroke:#000000; stroke-width:150000.000000; stroke-opacity:1; 
stroke-linecap:round; stroke-linejoin:round;">
<path d="M261002200 191507200
L261002200 198007200
" />
</g>
<g style="fill:#AFAFAF; fill-opacity:0.0; 
stroke:#AFAFAF; stroke-width:150000.000000; stroke-opacity:1; 
stroke-linecap:round; stroke-linejoin:round;">
<text x="234242200.000000" y="139670000.000000"
textLength="7769048.000000" font-size="1333333.000000" lengthAdjust="spacingAndGlyphs"
text-anchor="middle" opacity="0">Motor4Out</text>
<g class="stroked-text"><desc>Motor4Out</desc>
<path d="M237813629 139622380
L237813629 138622380
L237480296 139336666
L237146962 138622380
L237146962 139622380
" />
<path d="M236527915 139622380
L236623153 139574761
L236670772 139527142
L236718391 139431904
L236718391 139146190
L236670772 139050952
L236623153 139003333
L236527915 138955714
L236385058 138955714
L236289820 139003333
L236242200 139050952
L236194581 139146190
L236194581 139431904
L236242200 139527142
L236289820 139574761
L236385058 139622380
L236527915 139622380
" />
<path d="M235908867 138955714
L235527915 138955714
" />
<path d="M235766010 138622380
L235766010 139479523
L235718391 139574761
L235623153 139622380
L235527915 139622380
" />
<path d="M235051724 139622380
L235146962 139574761
L235194581 139527142
L235242200 139431904
L235242200 139146190
L235194581 139050952
L235146962 139003333
L235051724 138955714
L234908867 138955714
L234813629 139003333
L234766010 139050952
L234718391 139146190
L234718391 139431904
L234766010 139527142
L234813629 139574761
L234908867 139622380
L235051724 139622380
" />
<path d="M234289820 139622380
L234289820 138955714
" />
<path d="M234289820 139146190
L234242200 139050952
L234194581 139003333
L234099343 138955714
L234004105 138955714
" />
<path d="M233242200 138955714
L233242200 139622380
" />
<path d="M233480296 138574761
L233718391 139289047
L233099343 139289047
" />
<path d="M232527915 138622380
L232337439 138622380
L232242200 138670000
L232146962 138765238
L232099343 138955714
L232099343 139289047
L232146962 139479523
L232242200 139574761
L232337439 139622380
L232527915 139622380
L232623153 139574761
L232718391 139479523
L232766010 139289047
L232766010 138955714
L232718391 138765238
L232623153 138670000
L232527915 138622380
" />
<path d="M231242200 138955714
L231242200 139622380
" />
<path d="M231670772 138955714
L231670772 139479523
L231623153 139574761
L231527915 139622380
L231385058 139622380
L231289820 139574761
L231242200 139527142
" />
<path d="M230908867 138955714
L230527915 138955714
" />
<path d="M230766010 138622380
L230766010 139479523
L230718391 139574761
L230623153 139622380
L230527915 139622380
" />
</g><g transform="rotate(-90.000000 208102200.000000 95250000.000000)">
<text x="208102200.000000" y="95750000.000000"
textLength="1909286.000000" font-size="1333333.000000" lengthAdjust="spacingAndGlyphs"
text-anchor="middle" opacity="0">J4</text>
</g>
<g class="stroked-text"><desc>J4</desc>
<path d="M208649820 95583333
L207935534 95583333
L207792677 95630952
L207697439 95726190
L207649820 95869047
L207649820 95964285
" />
<path d="M208316486 94678571
L207649820 94678571
" />
<path d="M208697439 94916666
L207983153 95154761
L207983153 94535714
" />
</g><text x="224622200.000000" y="90155000.000000"
textLength="9290238.000000" font-size="1333333.000000" lengthAdjust="spacingAndGlyphs"
text-anchor="middle" opacity="0">Conn_01x19</text>
<g class="stroked-text"><desc>Conn_01x19</desc>
<path d="M228360296 90012142
L228407915 90059761
L228550772 90107380
L228646010 90107380
L228788867 90059761
L228884105 89964523
L228931724 89869285
L228979343 89678809
L228979343 89535952
L228931724 89345476
L228884105 89250238
L228788867 89155000
L228646010 89107380
L228550772 89107380
L228407915 89155000
L228360296 89202619
" />
<path d="M227788867 90107380
L227884105 90059761
L227931724 90012142
L227979343 89916904
L227979343 89631190
L227931724 89535952
L227884105 89488333
L227788867 89440714
L227646010 89440714
L227550772 89488333
L227503153 89535952
L227455534 89631190
L227455534 89916904
L227503153 90012142
L227550772 90059761
L227646010 90107380
L227788867 90107380
" />
<path d="M227026962 89440714
L227026962 90107380
" />
<path d="M227026962 89535952
L226979343 89488333
L226884105 89440714
L226741248 89440714
L226646010 89488333
L226598391 89583571
L226598391 90107380
" />
<path d="M226122200 89440714
L226122200 90107380
" />
<path d="M226122200 89535952
L226074581 89488333
L225979343 89440714
L225836486 89440714
L225741248 89488333
L225693629 89583571
L225693629 90107380
" />
<path d="M225455534 90202619
L224693629 90202619
" />
<path d="M224265058 89107380
L224169820 89107380
L224074581 89155000
L224026962 89202619
L223979343 89297857
L223931724 89488333
L223931724 89726428
L223979343 89916904
L224026962 90012142
L224074581 90059761
L224169820 90107380
L224265058 90107380
L224360296 90059761
L224407915 90012142
L224455534 89916904
L224503153 89726428
L224503153 89488333
L224455534 89297857
L224407915 89202619
L224360296 89155000
L224265058 89107380
" />
<path d="M222979343 90107380
L223550772 90107380
" />
<path d="M223265058 90107380
L223265058 89107380
L223360296 89250238
L223455534 89345476
L223550772 89393095
" />
<path d="M222646010 90107380
L222122200 89440714
" />
<path d="M222646010 89440714
L222122200 90107380
" />
<path d="M221217439 90107380
L221788867 90107380
" />
<path d="M221503153 90107380
L221503153 89107380
L221598391 89250238
L221693629 89345476
L221788867 89393095
" />
<path d="M220741248 90107380
L220550772 90107380
L220455534 90059761
L220407915 90012142
L220312677 89869285
L220265058 89678809
L220265058 89297857
L220312677 89202619
L220360296 89155000
L220455534 89107380
L220646010 89107380
L220741248 89155000
L220788867 89202619
L220836486 89297857
L220836486 89535952
L220788867 89631190
L220741248 89678809
L220646010 89726428
L220455534 89726428
L220360296 89678809
L220312677 89631190
L220265058 89535952
" />
</g><g transform="rotate(-90.000000 235522200.000000 114815000.000000)">
<text x="235522200.000000" y="115315000.000000"
textLength="1909286.000000" font-size="1333333.000000" lengthAdjust="spacingAndGlyphs"
text-anchor="middle" opacity="0">J5</text>
</g>
<g class="stroked-text"><desc>J5</desc>
<path d="M236069820 115148333
L235355534 115148333
L235212677 115195952
L235117439 115291190
L235069820 115434047
L235069820 115529285
" />
<path d="M236069820 114195952
L236069820 114672142
L235593629 114719761
L235641248 114672142
L235688867 114576904
L235688867 114338809
L235641248 114243571
L235593629 114195952
L235498391 114148333
L235260296 114148333
L235165058 114195952
L235117439 114243571
L235069820 114338809
L235069820 114576904
L235117439 114672142
L235165058 114719761
" />
</g><text x="208102200.000000" y="137435000.000000"
textLength="7480714.000000" font-size="1333333.000000" lengthAdjust="spacingAndGlyphs"
text-anchor="middle" opacity="0">FaderPWR</text>
<g class="stroked-text"><desc>FaderPWR</desc>
<path d="M211173629 136863571
L211506962 136863571
" />
<path d="M211506962 137387380
L211506962 136387380
L211030772 136387380
" />
<path d="M210221248 137387380
L210221248 136863571
L210268867 136768333
L210364105 136720714
L210554581 136720714
L210649820 136768333
" />
<path d="M210221248 137339761
L210316486 137387380
L210554581 137387380
L210649820 137339761
L210697439 137244523
L210697439 137149285
L210649820 137054047
L210554581 137006428
L210316486 137006428
L210221248 136958809
" />
<path d="M209316486 137387380
L209316486 136387380
" />
<path d="M209316486 137339761
L209411724 137387380
L209602200 137387380
L209697439 137339761
L209745058 137292142
L209792677 137196904
L209792677 136911190
L209745058 136815952
L209697439 136768333
L209602200 136720714
L209411724 136720714
L209316486 136768333
" />
<path d="M208459343 137339761
L208554581 137387380
L208745058 137387380
L208840296 137339761
L208887915 137244523
L208887915 136863571
L208840296 136768333
L208745058 136720714
L208554581 136720714
L208459343 136768333
L208411724 136863571
L208411724 136958809
L208887915 137054047
" />
<path d="M207983153 137387380
L207983153 136720714
" />
<path d="M207983153 136911190
L207935534 136815952
L207887915 136768333
L207792677 136720714
L207697439 136720714
" />
<path d="M207364105 137387380
L207364105 136387380
L206983153 136387380
L206887915 136435000
L206840296 136482619
L206792677 136577857
L206792677 136720714
L206840296 136815952
L206887915 136863571
L206983153 136911190
L207364105 136911190
" />
<path d="M206459343 136387380
L206221248 137387380
L206030772 136673095
L205840296 137387380
L205602200 136387380
" />
<path d="M204649820 137387380
L204983153 136911190
" />
<path d="M205221248 137387380
L205221248 136387380
L204840296 136387380
L204745058 136435000
L204697439 136482619
L204649820 136577857
L204649820 136720714
L204697439 136815952
L204745058 136863571
L204840296 136911190
L205221248 136911190
" />
</g><g transform="rotate(-90.000000 208102200.000000 133335000.000000)">
<text x="208102200.000000" y="133835000.000000"
textLength="1909286.000000" font-size="1333333.000000" lengthAdjust="spacingAndGlyphs"
text-anchor="middle" opacity="0">J1</text>
</g>
<g class="stroked-text"><desc>J1</desc>
<path d="M208649820 133668333
L207935534 133668333
L207792677 133715952
L207697439 133811190
L207649820 133954047
L207649820 134049285
" />
<path d="M207649820 132668333
L207649820 133239761
" />
<path d="M207649820 132954047
L208649820 132954047
L208506962 133049285
L208411724 133144523
L208364105 133239761
" />
</g><text x="209362200.000000" y="99785000.000000"
textLength="8766429.000000" font-size="1333333.000000" lengthAdjust="spacingAndGlyphs"
text-anchor="middle" opacity="0">Motor13Out</text>
<g class="stroked-text"><desc>Motor13Out</desc>
<path d="M213409820 99737380
L213409820 98737380
L213076486 99451666
L212743153 98737380
L212743153 99737380
" />
<path d="M212124105 99737380
L212219343 99689761
L212266962 99642142
L212314581 99546904
L212314581 99261190
L212266962 99165952
L212219343 99118333
L212124105 99070714
L211981248 99070714
L211886010 99118333
L211838391 99165952
L211790772 99261190
L211790772 99546904
L211838391 99642142
L211886010 99689761
L211981248 99737380
L212124105 99737380
" />
<path d="M211505058 99070714
L211124105 99070714
" />
<path d="M211362200 98737380
L211362200 99594523
L211314581 99689761
L211219343 99737380
L211124105 99737380
" />
<path d="M210647915 99737380
L210743153 99689761
L210790772 99642142
L210838391 99546904
L210838391 99261190
L210790772 99165952
L210743153 99118333
L210647915 99070714
L210505058 99070714
L210409820 99118333
L210362200 99165952
L210314581 99261190
L210314581 99546904
L210362200 99642142
L210409820 99689761
L210505058 99737380
L210647915 99737380
" />
<path d="M209886010 99737380
L209886010 99070714
" />
<path d="M209886010 99261190
L209838391 99165952
L209790772 99118333
L209695534 99070714
L209600296 99070714
" />
<path d="M208743153 99737380
L209314581 99737380
" />
<path d="M209028867 99737380
L209028867 98737380
L209124105 98880238
L209219343 98975476
L209314581 99023095
" />
<path d="M208409820 98737380
L207790772 98737380
L208124105 99118333
L207981248 99118333
L207886010 99165952
L207838391 99213571
L207790772 99308809
L207790772 99546904
L207838391 99642142
L207886010 99689761
L207981248 99737380
L208266962 99737380
L208362200 99689761
L208409820 99642142
" />
<path d="M207171724 98737380
L206981248 98737380
L206886010 98785000
L206790772 98880238
L206743153 99070714
L206743153 99404047
L206790772 99594523
L206886010 99689761
L206981248 99737380
L207171724 99737380
L207266962 99689761
L207362200 99594523
L207409820 99404047
L207409820 99070714
L207362200 98880238
L207266962 98785000
L207171724 98737380
" />
<path d="M205886010 99070714
L205886010 99737380
" />
<path d="M206314581 99070714
L206314581 99594523
L206266962 99689761
L206171724 99737380
L206028867 99737380
L205933629 99689761
L205886010 99642142
" />
<path d="M205552677 99070714
L205171724 99070714
" />
<path d="M205409820 98737380
L205409820 99594523
L205362200 99689761
L205266962 99737380
L205171724 99737380
" />
</g><g transform="rotate(-90.000000 208102200.000000 107950000.000000)">
<text x="208102200.000000" y="108450000.000000"
textLength="1909286.000000" font-size="1333333.000000" lengthAdjust="spacingAndGlyphs"
text-anchor="middle" opacity="0">J3</text>
</g>
<g class="stroked-text"><desc>J3</desc>
<path d="M208649820 108283333
L207935534 108283333
L207792677 108330952
L207697439 108426190
L207649820 108569047
L207649820 108664285
" />
<path d="M208649820 107902380
L208649820 107283333
L208268867 107616666
L208268867 107473809
L208221248 107378571
L208173629 107330952
L208078391 107283333
L207840296 107283333
L207745058 107330952
L207697439 107378571
L207649820 107473809
L207649820 107759523
L207697439 107854761
L207745058 107902380
" />
</g><text x="225352200.000000" y="137130000.000000"
textLength="4242619.000000" font-size="1333333.000000" lengthAdjust="spacingAndGlyphs"
text-anchor="middle" opacity="0">MC34</text>
<g class="stroked-text"><desc>MC34</desc>
<path d="M227137915 137082380
L227137915 136082380
L226804581 136796666
L226471248 136082380
L226471248 137082380
" />
<path d="M225423629 136987142
L225471248 137034761
L225614105 137082380
L225709343 137082380
L225852200 137034761
L225947439 136939523
L225995058 136844285
L226042677 136653809
L226042677 136510952
L225995058 136320476
L225947439 136225238
L225852200 136130000
L225709343 136082380
L225614105 136082380
L225471248 136130000
L225423629 136177619
" />
<path d="M225090296 136082380
L224471248 136082380
L224804581 136463333
L224661724 136463333
L224566486 136510952
L224518867 136558571
L224471248 136653809
L224471248 136891904
L224518867 136987142
L224566486 137034761
L224661724 137082380
L224947439 137082380
L225042677 137034761
L225090296 136987142
" />
<path d="M223614105 136415714
L223614105 137082380
" />
<path d="M223852200 136034761
L224090296 136749047
L223471248 136749047
" />
</g><text x="199212200.000000" y="100830000.000000"
textLength="2195000.000000" font-size="1333333.000000" lengthAdjust="spacingAndGlyphs"
text-anchor="middle" opacity="0">U3</text>
<g class="stroked-text"><desc>U3</desc>
<path d="M199974105 99782380
L199974105 100591904
L199926486 100687142
L199878867 100734761
L199783629 100782380
L199593153 100782380
L199497915 100734761
L199450296 100687142
L199402677 100591904
L199402677 99782380
" />
<path d="M199021724 99782380
L198402677 99782380
L198736010 100163333
L198593153 100163333
L198497915 100210952
L198450296 100258571
L198402677 100353809
L198402677 100591904
L198450296 100687142
L198497915 100734761
L198593153 100782380
L198878867 100782380
L198974105 100734761
L199021724 100687142
" />
</g><text x="220812200.000000" y="88885000.000000"
textLength="9290238.000000" font-size="1333333.000000" lengthAdjust="spacingAndGlyphs"
text-anchor="middle" opacity="0">Conn_01x19</text>
<g class="stroked-text"><desc>Conn_01x19</desc>
<path d="M224550296 88742142
L224597915 88789761
L224740772 88837380
L224836010 88837380
L224978867 88789761
L225074105 88694523
L225121724 88599285
L225169343 88408809
L225169343 88265952
L225121724 88075476
L225074105 87980238
L224978867 87885000
L224836010 87837380
L224740772 87837380
L224597915 87885000
L224550296 87932619
" />
<path d="M223978867 88837380
L224074105 88789761
L224121724 88742142
L224169343 88646904
L224169343 88361190
L224121724 88265952
L224074105 88218333
L223978867 88170714
L223836010 88170714
L223740772 88218333
L223693153 88265952
L223645534 88361190
L223645534 88646904
L223693153 88742142
L223740772 88789761
L223836010 88837380
L223978867 88837380
" />
<path d="M223216962 88170714
L223216962 88837380
" />
<path d="M223216962 88265952
L223169343 88218333
L223074105 88170714
L222931248 88170714
L222836010 88218333
L222788391 88313571
L222788391 88837380
" />
<path d="M222312200 88170714
L222312200 88837380
" />
<path d="M222312200 88265952
L222264581 88218333
L222169343 88170714
L222026486 88170714
L221931248 88218333
L221883629 88313571
L221883629 88837380
" />
<path d="M221645534 88932619
L220883629 88932619
" />
<path d="M220455058 87837380
L220359820 87837380
L220264581 87885000
L220216962 87932619
L220169343 88027857
L220121724 88218333
L220121724 88456428
L220169343 88646904
L220216962 88742142
L220264581 88789761
L220359820 88837380
L220455058 88837380
L220550296 88789761
L220597915 88742142
L220645534 88646904
L220693153 88456428
L220693153 88218333
L220645534 88027857
L220597915 87932619
L220550296 87885000
L220455058 87837380
" />
<path d="M219169343 88837380
L219740772 88837380
" />
<path d="M219455058 88837380
L219455058 87837380
L219550296 87980238
L219645534 88075476
L219740772 88123095
" />
<path d="M218836010 88837380
L218312200 88170714
" />
<path d="M218836010 88170714
L218312200 88837380
" />
<path d="M217407439 88837380
L217978867 88837380
" />
<path d="M217693153 88837380
L217693153 87837380
L217788391 87980238
L217883629 88075476
L217978867 88123095
" />
<path d="M216931248 88837380
L216740772 88837380
L216645534 88789761
L216597915 88742142
L216502677 88599285
L216455058 88408809
L216455058 88027857
L216502677 87932619
L216550296 87885000
L216645534 87837380
L216836010 87837380
L216931248 87885000
L216978867 87932619
L217026486 88027857
L217026486 88265952
L216978867 88361190
L216931248 88408809
L216836010 88456428
L216645534 88456428
L216550296 88408809
L216502677 88361190
L216455058 88265952
" />
</g><g transform="rotate(-90.000000 212662200.000000 114815000.000000)">
<text x="212662200.000000" y="115315000.000000"
textLength="1909286.000000" font-size="1333333.000000" lengthAdjust="spacingAndGlyphs"
text-anchor="middle" opacity="0">J6</text>
</g>
<g class="stroked-text"><desc>J6</desc>
<path d="M213209820 115148333
L212495534 115148333
L212352677 115195952
L212257439 115291190
L212209820 115434047
L212209820 115529285
" />
<path d="M213209820 114243571
L213209820 114434047
L213162200 114529285
L213114581 114576904
L212971724 114672142
L212781248 114719761
L212400296 114719761
L212305058 114672142
L212257439 114624523
L212209820 114529285
L212209820 114338809
L212257439 114243571
L212305058 114195952
L212400296 114148333
L212638391 114148333
L212733629 114195952
L212781248 114243571
L212828867 114338809
L212828867 114529285
L212781248 114624523
L212733629 114672142
L212638391 114719761
" />
</g><text x="209362200.000000" y="117555000.000000"
textLength="9004524.000000" font-size="1333333.000000" lengthAdjust="spacingAndGlyphs"
text-anchor="middle" opacity="0">FaderSignal</text>
<g class="stroked-text"><desc>FaderSignal</desc>
<path d="M213195534 116983571
L213528867 116983571
" />
<path d="M213528867 117507380
L213528867 116507380
L213052677 116507380
" />
<path d="M212243153 117507380
L212243153 116983571
L212290772 116888333
L212386010 116840714
L212576486 116840714
L212671724 116888333
" />
<path d="M212243153 117459761
L212338391 117507380
L212576486 117507380
L212671724 117459761
L212719343 117364523
L212719343 117269285
L212671724 117174047
L212576486 117126428
L212338391 117126428
L212243153 117078809
" />
<path d="M211338391 117507380
L211338391 116507380
" />
<path d="M211338391 117459761
L211433629 117507380
L211624105 117507380
L211719343 117459761
L211766962 117412142
L211814581 117316904
L211814581 117031190
L211766962 116935952
L211719343 116888333
L211624105 116840714
L211433629 116840714
L211338391 116888333
" />
<path d="M210481248 117459761
L210576486 117507380
L210766962 117507380
L210862200 117459761
L210909820 117364523
L210909820 116983571
L210862200 116888333
L210766962 116840714
L210576486 116840714
L210481248 116888333
L210433629 116983571
L210433629 117078809
L210909820 117174047
" />
<path d="M210005058 117507380
L210005058 116840714
" />
<path d="M210005058 117031190
L209957439 116935952
L209909820 116888333
L209814581 116840714
L209719343 116840714
" />
<path d="M209433629 117459761
L209290772 117507380
L209052677 117507380
L208957439 117459761
L208909820 117412142
L208862200 117316904
L208862200 117221666
L208909820 117126428
L208957439 117078809
L209052677 117031190
L209243153 116983571
L209338391 116935952
L209386010 116888333
L209433629 116793095
L209433629 116697857
L209386010 116602619
L209338391 116555000
L209243153 116507380
L209005058 116507380
L208862200 116555000
" />
<path d="M208433629 117507380
L208433629 116840714
" />
<path d="M208433629 116507380
L208481248 116555000
L208433629 116602619
L208386010 116555000
L208433629 116507380
L208433629 116602619
" />
<path d="M207528867 116840714
L207528867 117650238
L207576486 117745476
L207624105 117793095
L207719343 117840714
L207862200 117840714
L207957439 117793095
" />
<path d="M207528867 117459761
L207624105 117507380
L207814581 117507380
L207909820 117459761
L207957439 117412142
L208005058 117316904
L208005058 117031190
L207957439 116935952
L207909820 116888333
L207814581 116840714
L207624105 116840714
L207528867 116888333
" />
<path d="M207052677 116840714
L207052677 117507380
" />
<path d="M207052677 116935952
L207005058 116888333
L206909820 116840714
L206766962 116840714
L206671724 116888333
L206624105 116983571
L206624105 117507380
" />
<path d="M205719343 117507380
L205719343 116983571
L205766962 116888333
L205862200 116840714
L206052677 116840714
L206147915 116888333
" />
<path d="M205719343 117459761
L205814581 117507380
L206052677 117507380
L206147915 117459761
L206195534 117364523
L206195534 117269285
L206147915 117174047
L206052677 117126428
L205814581 117126428
L205719343 117078809
" />
<path d="M205100296 117507380
L205195534 117459761
L205243153 117364523
L205243153 116507380
" />
</g><g transform="rotate(-90.000000 208102200.000000 123180000.000000)">
<text x="208102200.000000" y="123680000.000000"
textLength="1909286.000000" font-size="1333333.000000" lengthAdjust="spacingAndGlyphs"
text-anchor="middle" opacity="0">J2</text>
</g>
<g class="stroked-text"><desc>J2</desc>
<path d="M208649820 123513333
L207935534 123513333
L207792677 123560952
L207697439 123656190
L207649820 123799047
L207649820 123894285
" />
<path d="M208554581 123084761
L208602200 123037142
L208649820 122941904
L208649820 122703809
L208602200 122608571
L208554581 122560952
L208459343 122513333
L208364105 122513333
L208221248 122560952
L207649820 123132380
L207649820 122513333
" />
</g><g transform="rotate(-90.000000 262192200.000000 117355000.000000)">
<text x="262192200.000000" y="117855000.000000"
textLength="22718810.000000" font-size="1333333.000000" lengthAdjust="spacingAndGlyphs"
text-anchor="middle" opacity="0">YAAJ_DCDC_StepDown_LM2596</text>
</g>
<g class="stroked-text"><desc>YAAJ_DCDC_StepDown_LM2596</desc>
<path d="M262216010 128188333
L261739820 128188333
" />
<path d="M262739820 128521666
L262216010 128188333
L262739820 127855000
" />
<path d="M262025534 127569285
L262025534 127093095
" />
<path d="M261739820 127664523
L262739820 127331190
L261739820 126997857
" />
<path d="M262025534 126712142
L262025534 126235952
" />
<path d="M261739820 126807380
L262739820 126474047
L261739820 126140714
" />
<path d="M262739820 125521666
L262025534 125521666
L261882677 125569285
L261787439 125664523
L261739820 125807380
L261739820 125902619
" />
<path d="M261644581 125283571
L261644581 124521666
" />
<path d="M261739820 124283571
L262739820 124283571
L262739820 124045476
L262692200 123902619
L262596962 123807380
L262501724 123759761
L262311248 123712142
L262168391 123712142
L261977915 123759761
L261882677 123807380
L261787439 123902619
L261739820 124045476
L261739820 124283571
" />
<path d="M261835058 122712142
L261787439 122759761
L261739820 122902619
L261739820 122997857
L261787439 123140714
L261882677 123235952
L261977915 123283571
L262168391 123331190
L262311248 123331190
L262501724 123283571
L262596962 123235952
L262692200 123140714
L262739820 122997857
L262739820 122902619
L262692200 122759761
L262644581 122712142
" />
<path d="M261739820 122283571
L262739820 122283571
L262739820 122045476
L262692200 121902619
L262596962 121807380
L262501724 121759761
L262311248 121712142
L262168391 121712142
L261977915 121759761
L261882677 121807380
L261787439 121902619
L261739820 122045476
L261739820 122283571
" />
<path d="M261835058 120712142
L261787439 120759761
L261739820 120902619
L261739820 120997857
L261787439 121140714
L261882677 121235952
L261977915 121283571
L262168391 121331190
L262311248 121331190
L262501724 121283571
L262596962 121235952
L262692200 121140714
L262739820 120997857
L262739820 120902619
L262692200 120759761
L262644581 120712142
" />
<path d="M261644581 120521666
L261644581 119759761
" />
<path d="M261787439 119569285
L261739820 119426428
L261739820 119188333
L261787439 119093095
L261835058 119045476
L261930296 118997857
L262025534 118997857
L262120772 119045476
L262168391 119093095
L262216010 119188333
L262263629 119378809
L262311248 119474047
L262358867 119521666
L262454105 119569285
L262549343 119569285
L262644581 119521666
L262692200 119474047
L262739820 119378809
L262739820 119140714
L262692200 118997857
" />
<path d="M262406486 118712142
L262406486 118331190
" />
<path d="M262739820 118569285
L261882677 118569285
L261787439 118521666
L261739820 118426428
L261739820 118331190
" />
<path d="M261787439 117616904
L261739820 117712142
L261739820 117902619
L261787439 117997857
L261882677 118045476
L262263629 118045476
L262358867 117997857
L262406486 117902619
L262406486 117712142
L262358867 117616904
L262263629 117569285
L262168391 117569285
L262073153 118045476
" />
<path d="M262406486 117140714
L261406486 117140714
" />
<path d="M262358867 117140714
L262406486 117045476
L262406486 116855000
L262358867 116759761
L262311248 116712142
L262216010 116664523
L261930296 116664523
L261835058 116712142
L261787439 116759761
L261739820 116855000
L261739820 117045476
L261787439 117140714
" />
<path d="M261739820 116235952
L262739820 116235952
L262739820 115997857
L262692200 115855000
L262596962 115759761
L262501724 115712142
L262311248 115664523
L262168391 115664523
L261977915 115712142
L261882677 115759761
L261787439 115855000
L261739820 115997857
L261739820 116235952
" />
<path d="M261739820 115093095
L261787439 115188333
L261835058 115235952
L261930296 115283571
L262216010 115283571
L262311248 115235952
L262358867 115188333
L262406486 115093095
L262406486 114950238
L262358867 114855000
L262311248 114807380
L262216010 114759761
L261930296 114759761
L261835058 114807380
L261787439 114855000
L261739820 114950238
L261739820 115093095
" />
<path d="M262406486 114426428
L261739820 114235952
L262216010 114045476
L261739820 113855000
L262406486 113664523
" />
<path d="M262406486 113283571
L261739820 113283571
" />
<path d="M262311248 113283571
L262358867 113235952
L262406486 113140714
L262406486 112997857
L262358867 112902619
L262263629 112855000
L261739820 112855000
" />
<path d="M261644581 112616904
L261644581 111855000
" />
<path d="M261739820 111140714
L261739820 111616904
L262739820 111616904
" />
<path d="M261739820 110807380
L262739820 110807380
L262025534 110474047
L262739820 110140714
L261739820 110140714
" />
<path d="M262644581 109712142
L262692200 109664523
L262739820 109569285
L262739820 109331190
L262692200 109235952
L262644581 109188333
L262549343 109140714
L262454105 109140714
L262311248 109188333
L261739820 109759761
L261739820 109140714
" />
<path d="M262739820 108235952
L262739820 108712142
L262263629 108759761
L262311248 108712142
L262358867 108616904
L262358867 108378809
L262311248 108283571
L262263629 108235952
L262168391 108188333
L261930296 108188333
L261835058 108235952
L261787439 108283571
L261739820 108378809
L261739820 108616904
L261787439 108712142
L261835058 108759761
" />
<path d="M261739820 107712142
L261739820 107521666
L261787439 107426428
L261835058 107378809
L261977915 107283571
L262168391 107235952
L262549343 107235952
L262644581 107283571
L262692200 107331190
L262739820 107426428
L262739820 107616904
L262692200 107712142
L262644581 107759761
L262549343 107807380
L262311248 107807380
L262216010 107759761
L262168391 107712142
L262120772 107616904
L262120772 107426428
L262168391 107331190
L262216010 107283571
L262311248 107235952
" />
<path d="M262739820 106378809
L262739820 106569285
L262692200 106664523
L262644581 106712142
L262501724 106807380
L262311248 106855000
L261930296 106855000
L261835058 106807380
L261787439 106759761
L261739820 106664523
L261739820 106474047
L261787439 106378809
L261835058 106331190
L261930296 106283571
L262168391 106283571
L262263629 106331190
L262311248 106378809
L262358867 106474047
L262358867 106664523
L262311248 106759761
L262263629 106807380
L262168391 106855000
" />
</g><g transform="rotate(-90.000000 249492200.000000 118625000.000000)">
<text x="249492200.000000" y="119125000.000000"
textLength="4480714.000000" font-size="1333333.000000" lengthAdjust="spacingAndGlyphs"
text-anchor="middle" opacity="0">REF**</text>
</g>
<g class="stroked-text"><desc>REF**</desc>
<path d="M249039820 119958333
L249516010 120291666
" />
<path d="M249039820 120529761
L250039820 120529761
L250039820 120148809
L249992200 120053571
L249944581 120005952
L249849343 119958333
L249706486 119958333
L249611248 120005952
L249563629 120053571
L249516010 120148809
L249516010 120529761
" />
<path d="M249563629 119529761
L249563629 119196428
" />
<path d="M249039820 119053571
L249039820 119529761
L250039820 119529761
L250039820 119053571
" />
<path d="M249563629 118291666
L249563629 118625000
" />
<path d="M249039820 118625000
L250039820 118625000
L250039820 118148809
" />
<path d="M250039820 117625000
L249801724 117625000
" />
<path d="M249896962 117863095
L249801724 117625000
L249896962 117386904
" />
<path d="M249611248 117767857
L249801724 117625000
L249611248 117482142
" />
<path d="M250039820 116863095
L249801724 116863095
" />
<path d="M249896962 117101190
L249801724 116863095
L249896962 116625000
" />
<path d="M249611248 117005952
L249801724 116863095
L249611248 116720238
" />
</g><text x="199212200.000000" y="112470000.000000"
textLength="4242619.000000" font-size="1333333.000000" lengthAdjust="spacingAndGlyphs"
text-anchor="middle" opacity="0">MC12</text>
<g class="stroked-text"><desc>MC12</desc>
<path d="M200997915 112422380
L200997915 111422380
L200664581 112136666
L200331248 111422380
L200331248 112422380
" />
<path d="M199283629 112327142
L199331248 112374761
L199474105 112422380
L199569343 112422380
L199712200 112374761
L199807439 112279523
L199855058 112184285
L199902677 111993809
L199902677 111850952
L199855058 111660476
L199807439 111565238
L199712200 111470000
L199569343 111422380
L199474105 111422380
L199331248 111470000
L199283629 111517619
" />
<path d="M198331248 112422380
L198902677 112422380
" />
<path d="M198616962 112422380
L198616962 111422380
L198712200 111565238
L198807439 111660476
L198902677 111708095
" />
<path d="M197950296 111517619
L197902677 111470000
L197807439 111422380
L197569343 111422380
L197474105 111470000
L197426486 111517619
L197378867 111612857
L197378867 111708095
L197426486 111850952
L197997915 112422380
L197378867 112422380
" />
</g><text x="199212200.000000" y="123690000.000000"
textLength="2195000.000000" font-size="1333333.000000" lengthAdjust="spacingAndGlyphs"
text-anchor="middle" opacity="0">U1</text>
<g class="stroked-text"><desc>U1</desc>
<path d="M199974105 122642380
L199974105 123451904
L199926486 123547142
L199878867 123594761
L199783629 123642380
L199593153 123642380
L199497915 123594761
L199450296 123547142
L199402677 123451904
L199402677 122642380
" />
<path d="M198402677 123642380
L198974105 123642380
" />
<path d="M198688391 123642380
L198688391 122642380
L198783629 122785238
L198878867 122880476
L198974105 122928095
" />
</g></g>
<g style="fill:#AFAFAF; fill-opacity:0.0; 
stroke:#AFAFAF; stroke-width:100000.000000; stroke-opacity:1; 
stroke-linecap:round; stroke-linejoin:round;">
<path d="M206832200 92710000
L206832200 97155000
" />
<path d="M207467200 97790000
L209372200 97790000
" />
<path d="M209372200 97790000
L209372200 92710000
" />
<path d="M209372200 92710000
L206832200 92710000
" />
<path d="M206832200 97155000
L207467200 97790000
" />
<path d="M234252200 91320000
L234252200 138945000
" />
<path d="M236792200 90685000
L234887200 90685000
" />
<path d="M234252200 138945000
L236792200 138945000
" />
<path d="M234887200 90685000
L234252200 91320000
" />
<path d="M236792200 138945000
L236792200 90685000
" />
<path d="M206832200 130795000
L206832200 135875000
" />
<path d="M209372200 131430000
L208737200 130795000
" />
<path d="M209372200 135875000
L209372200 131430000
" />
<path d="M208737200 130795000
L206832200 130795000
" />
<path d="M206832200 135875000
L209372200 135875000
" />
<path d="M206832200 100330000
L206832200 114935000
" />
<path d="M207467200 115570000
L209372200 115570000
" />
<path d="M206832200 114935000
L207467200 115570000
" />
<path d="M209372200 115570000
L209372200 100330000
" />
<path d="M209372200 100330000
L206832200 100330000
" />
<path d="M197037200 110490000
L202387200 110490000
" />
<path d="M196037200 90170000
L196037200 109490000
" />
<path d="M196037200 109490000
L197037200 110490000
" />
<path d="M202387200 110490000
L202387200 90170000
" />
<path d="M202387200 90170000
L196037200 90170000
" />
<path d="M212027200 90685000
L211392200 91320000
" />
<path d="M211392200 91320000
L211392200 138945000
" />
<path d="M213932200 90685000
L212027200 90685000
" />
<path d="M211392200 138945000
L213932200 138945000
" />
<path d="M213932200 138945000
L213932200 90685000
" />
<path d="M209372200 118100000
L206832200 118100000
" />
<path d="M209372200 128260000
L209372200 118100000
" />
<path d="M206832200 127625000
L207467200 128260000
" />
<path d="M206832200 118100000
L206832200 127625000
" />
<path d="M207467200 128260000
L209372200 128260000
" />
<path d="M239332200 98305000
L241872200 98305000
" />
<path d="M239332200 138945000
L241872200 138945000
" />
<path d="M257112200 95765000
L257112200 98305000
" />
<path d="M238842200 95555000
L260142200 95555000
" />
<path d="M239332200 96400000
L239332200 98305000
" />
<path d="M257112200 138945000
L259652200 138945000
" />
<path d="M260142200 139155000
L238842200 139155000
" />
<path d="M238842200 139155000
L238842200 95555000
" />
<path d="M259652200 138945000
L259652200 136405000
" />
<path d="M241872200 95765000
L239967200 95765000
" />
<path d="M241872200 98305000
L241872200 95765000
" />
<path d="M257112200 98305000
L259652200 98305000
" />
<path d="M241872200 136405000
L239332200 136405000
" />
<path d="M239967200 95765000
L239332200 96400000
" />
<path d="M241872200 138945000
L241872200 136405000
" />
<path d="M257112200 136405000
L257112200 138945000
" />
<path d="M239332200 136405000
L239332200 138945000
" />
<path d="M260142200 95555000
L260142200 139155000
" />
<path d="M259652200 136405000
L257112200 136405000
" />
<path d="M259652200 98305000
L259652200 95765000
" />
<path d="M259652200 95765000
L257112200 95765000
" />
<circle cx="241237200.000000" cy="102115000.000000" r="1598999.000000" /> 
<circle cx="257747200.000000" cy="132595000.000000" r="1599000.000000" /> 
<path d="M196037200 132350000
L197037200 133350000
" />
<path d="M196037200 113030000
L196037200 132350000
" />
<path d="M202387200 133350000
L202387200 113030000
" />
<path d="M202387200 113030000
L196037200 113030000
" />
<path d="M197037200 133350000
L202387200 133350000
" />
<g >
</g>
<g >
</g>
<g >
</g>
<g >
</g>
<g >
</g>
<g >
</g>
<g >
</g>
<g >
</g>
<g >
</g>
<g >
</g>
<g >
</g>
<g >
</g>
</g>
<g style="fill:#000000; fill-opacity:0.0; 
stroke:#000000; stroke-width:100000.000000; stroke-opacity:1; 
stroke-linecap:round; stroke-linejoin:round;">
<g >
</g>
<g >
</g>
<g >
</g>
<g >
</g>
<g >
</g>
<g >
</g>
<g >
</g>
<g >
</g>
<g >
</g>
<g >
</g>
<g >
</g>
<g >
</g>
</g> 
</svg>
